REM DIRINDEX 1\2,1\3,1\4,1\5\6,1\5\7,1\8
REM DIRNAME folder01,folder02,folder03,folder04,folder05,folder06,folder07,folder08
TITLE ""
FILE "170 Åy170ÅzUnit10 (DATA FILE_åÍúbóÕÇçÇÇﬂÇÈê⁄ì™.mp3" MP3
  TRACK 01 AUDIO
    TITLE "0:"
    INDEX 01 00:00:00
  TRACK 02 AUDIO
    TITLE "8:cjc115_6646"
    INDEX 01 00:00:07
  TRACK 03 AUDIO
    TITLE "0:"
    INDEX 01 00:01:38
  TRACK 04 AUDIO
    TITLE "6:cjc115_6647"
    INDEX 01 00:02:04
  TRACK 05 AUDIO
    TITLE "0:"
    INDEX 01 00:03:25
  TRACK 06 AUDIO
    TITLE "7:cjc115_6648"
    INDEX 01 00:03:31
  TRACK 07 AUDIO
    TITLE "0:"
    INDEX 01 00:05:09
  TRACK 08 AUDIO
    TITLE "6:cjc115_6649"
    INDEX 01 00:06:18
  TRACK 09 AUDIO
    TITLE "0:"
    INDEX 01 00:07:41
  TRACK 10 AUDIO
    TITLE "7:cjc115_6650"
    INDEX 01 00:07:51
  TRACK 11 AUDIO
    TITLE "0:"
    INDEX 01 00:10:45
  TRACK 12 AUDIO
    TITLE "6:cjc115_6651"
    INDEX 01 00:11:46
  TRACK 13 AUDIO
    TITLE "0:"
    INDEX 01 00:12:69
  TRACK 14 AUDIO
    TITLE "7:cjc115_6652"
    INDEX 01 00:13:02
  TRACK 15 AUDIO
    TITLE "0:"
    INDEX 01 00:16:10
  TRACK 16 AUDIO
    TITLE "6:cjc115_6653"
    INDEX 01 00:17:18
  TRACK 17 AUDIO
    TITLE "0:"
    INDEX 01 00:18:56
  TRACK 18 AUDIO
    TITLE "7:cjc115_6654"
    INDEX 01 00:18:58
  TRACK 19 AUDIO
    TITLE "0:"
    INDEX 01 00:20:12
  TRACK 20 AUDIO
    TITLE "6:cjc115_6655"
    INDEX 01 00:21:13
  TRACK 21 AUDIO
    TITLE "0:"
    INDEX 01 00:22:46
  TRACK 22 AUDIO
    TITLE "7:cjc115_6656"
    INDEX 01 00:22:52
  TRACK 23 AUDIO
    TITLE "0:"
    INDEX 01 00:24:27
  TRACK 24 AUDIO
    TITLE "6:cjc115_6657"
    INDEX 01 00:25:35
  TRACK 25 AUDIO
    TITLE "0:"
    INDEX 01 00:26:67
  TRACK 26 AUDIO
    TITLE "7:cjc115_6658"
    INDEX 01 00:27:00
  TRACK 27 AUDIO
    TITLE "0:"
    INDEX 01 00:29:54
  TRACK 28 AUDIO
    TITLE "6:cjc115_6659"
    INDEX 01 00:30:61
  TRACK 29 AUDIO
    TITLE "0:"
    INDEX 01 00:32:23
  TRACK 30 AUDIO
    TITLE "7:cjc115_6660"
    INDEX 01 00:32:31
  TRACK 31 AUDIO
    TITLE "0:"
    INDEX 01 00:34:30
  TRACK 32 AUDIO
    TITLE "6:cjc115_6661"
    INDEX 01 00:35:41
  TRACK 33 AUDIO
    TITLE "0:"
    INDEX 01 00:36:66
  TRACK 34 AUDIO
    TITLE "7:cjc115_6662"
    INDEX 01 00:36:74
  TRACK 35 AUDIO
    TITLE "0:"
    INDEX 01 00:39:33
  TRACK 36 AUDIO
    TITLE "6:cjc115_6663"
    INDEX 01 00:40:44
  TRACK 37 AUDIO
    TITLE "0:"
    INDEX 01 00:41:65
  TRACK 38 AUDIO
    TITLE "7:cjc115_6664"
    INDEX 01 00:42:00
  TRACK 39 AUDIO
    TITLE "0:"
    INDEX 01 00:44:28
  TRACK 40 AUDIO
    TITLE "6:cjc115_6665"
    INDEX 01 00:45:39
  TRACK 41 AUDIO
    TITLE "0:"
    INDEX 01 00:46:58
  TRACK 42 AUDIO
    TITLE "7:cjc115_6666"
    INDEX 01 00:46:70
  TRACK 43 AUDIO
    TITLE "0:"
    INDEX 01 00:49:14
  TRACK 44 AUDIO
    TITLE "6:cjc115_6667"
    INDEX 01 00:50:25
  TRACK 45 AUDIO
    TITLE "0:"
    INDEX 01 00:51:46
  TRACK 46 AUDIO
    TITLE "7:cjc115_6668"
    INDEX 01 00:51:54
  TRACK 47 AUDIO
    TITLE "0:"
    INDEX 01 00:53:70
  TRACK 48 AUDIO
    TITLE "6:cjc115_6669"
    INDEX 01 00:55:03
  TRACK 49 AUDIO
    TITLE "0:"
    INDEX 01 00:56:25
  TRACK 50 AUDIO
    TITLE "7:cjc115_6670"
    INDEX 01 00:56:33
  TRACK 51 AUDIO
    TITLE "0:"
    INDEX 01 00:59:22
  TRACK 52 AUDIO
    TITLE "6:cjc115_6671"
    INDEX 01 01:00:31
  TRACK 53 AUDIO
    TITLE "0:"
    INDEX 01 01:01:52
  TRACK 54 AUDIO
    TITLE "7:cjc115_6672"
    INDEX 01 01:01:62
  TRACK 55 AUDIO
    TITLE "0:"
    INDEX 01 01:04:05
  TRACK 56 AUDIO
    TITLE "6:cjc115_6673"
    INDEX 01 01:05:05
  TRACK 57 AUDIO
    TITLE "0:"
    INDEX 01 01:06:30
  TRACK 58 AUDIO
    TITLE "7:cjc115_6674"
    INDEX 01 01:06:42
  TRACK 59 AUDIO
    TITLE "0:"
    INDEX 01 01:07:72
  TRACK 60 AUDIO
    TITLE "6:cjc115_6675"
    INDEX 01 01:09:09
  TRACK 61 AUDIO
    TITLE "0:"
    INDEX 01 01:10:33
  TRACK 62 AUDIO
    TITLE "7:cjc115_6676"
    INDEX 01 01:10:41
  TRACK 63 AUDIO
    TITLE "0:"
    INDEX 01 01:13:30
  TRACK 64 AUDIO
    TITLE "6:cjc115_6677"
    INDEX 01 01:14:41
  TRACK 65 AUDIO
    TITLE "0:"
    INDEX 01 01:15:68
  TRACK 66 AUDIO
    TITLE "7:cjc115_6678"
    INDEX 01 01:16:01
  TRACK 67 AUDIO
    TITLE "0:"
    INDEX 01 01:18:43
  TRACK 68 AUDIO
    TITLE "6:cjc115_6679"
    INDEX 01 01:19:54
  TRACK 69 AUDIO
    TITLE "0:"
    INDEX 01 01:21:02
  TRACK 70 AUDIO
    TITLE "7:cjc115_6680"
    INDEX 01 01:21:10
  TRACK 71 AUDIO
    TITLE "0:"
    INDEX 01 01:23:50
  TRACK 72 AUDIO
    TITLE "6:cjc115_6681"
    INDEX 01 01:24:59
  TRACK 73 AUDIO
    TITLE "0:"
    INDEX 01 01:26:09
  TRACK 74 AUDIO
    TITLE "7:cjc115_6682"
    INDEX 01 01:26:17
  TRACK 75 AUDIO
    TITLE "0:"
    INDEX 01 01:28:67
  TRACK 76 AUDIO
    TITLE "6:cjc115_6683"
    INDEX 01 01:29:74
  TRACK 77 AUDIO
    TITLE "0:"
    INDEX 01 01:31:14
  TRACK 78 AUDIO
    TITLE "7:cjc115_6684"
    INDEX 01 01:31:22
  TRACK 79 AUDIO
    TITLE "0:"
    INDEX 01 01:32:57
  TRACK 80 AUDIO
    TITLE "6:cjc115_6685"
    INDEX 01 01:33:66
  TRACK 81 AUDIO
    TITLE "0:"
    INDEX 01 01:35:04
  TRACK 82 AUDIO
    TITLE "7:cjc115_6686"
    INDEX 01 01:35:12
  TRACK 83 AUDIO
    TITLE "0:"
    INDEX 01 01:36:37
  TRACK 84 AUDIO
    TITLE "6:cjc115_6687"
    INDEX 01 01:37:40
  TRACK 85 AUDIO
    TITLE "0:"
    INDEX 01 01:38:57
  TRACK 86 AUDIO
    TITLE "7:cjc115_6688"
    INDEX 01 01:38:63
  TRACK 87 AUDIO
    TITLE "0:"
    INDEX 01 01:40:21
  TRACK 88 AUDIO
    TITLE "6:cjc115_6689"
    INDEX 01 01:41:24
  TRACK 89 AUDIO
    TITLE "0:"
    INDEX 01 01:42:41
  TRACK 90 AUDIO
    TITLE "7:cjc115_6690"
    INDEX 01 01:42:45
  TRACK 91 AUDIO
    TITLE "0:"
    INDEX 01 01:43:70
  TRACK 92 AUDIO
    TITLE "6:cjc115_6691"
    INDEX 01 01:45:04
  TRACK 93 AUDIO
    TITLE "0:"
    INDEX 01 01:46:21
  TRACK 94 AUDIO
    TITLE "7:cjc115_6692"
    INDEX 01 01:46:27
  TRACK 95 AUDIO
    TITLE "0:"
    INDEX 01 01:47:66
  TRACK 96 AUDIO
    TITLE "6:cjc115_6693"
    INDEX 01 01:48:71
  TRACK 97 AUDIO
    TITLE "0:"
    INDEX 01 01:50:11
  TRACK 98 AUDIO
    TITLE "7:cjc115_6694"
    INDEX 01 01:50:19
  TRACK 99 AUDIO
    TITLE "0:"
    INDEX 01 01:53:18
  TRACK 100 AUDIO
    TITLE "6:cjc115_6695"
    INDEX 01 01:54:27
  TRACK 101 AUDIO
    TITLE "0:"
    INDEX 01 01:55:46
  TRACK 102 AUDIO
    TITLE "7:cjc115_6696"
    INDEX 01 01:55:58
  TRACK 103 AUDIO
    TITLE "0:"
    INDEX 01 01:57:31
  TRACK 104 AUDIO
    TITLE "6:cjc115_6697"
    INDEX 01 01:58:40
  TRACK 105 AUDIO
    TITLE "0:"
    INDEX 01 01:59:63
  TRACK 106 AUDIO
    TITLE "7:cjc115_6698"
    INDEX 01 01:59:73
  TRACK 107 AUDIO
    TITLE "0:"
    INDEX 01 02:02:30
  TRACK 108 AUDIO
    TITLE "6:cjc115_6699"
    INDEX 01 02:03:38
  TRACK 109 AUDIO
    TITLE "0:"
    INDEX 01 02:04:43
  TRACK 110 AUDIO
    TITLE "7:cjc115_6700"
    INDEX 01 02:04:53
  TRACK 111 AUDIO
    TITLE "0:"
    INDEX 01 02:06:34
  TRACK 112 AUDIO
    TITLE "6:cjc115_6701"
    INDEX 01 02:07:43
  TRACK 113 AUDIO
    TITLE "0:"
    INDEX 01 02:08:54
  TRACK 114 AUDIO
    TITLE "7:cjc115_6702"
    INDEX 01 02:08:60
  TRACK 115 AUDIO
    TITLE "0:"
    INDEX 01 02:11:19
  TRACK 116 AUDIO
    TITLE "6:cjc115_6703"
    INDEX 01 02:12:25
  TRACK 117 AUDIO
    TITLE "0:"
    INDEX 01 02:13:46
  TRACK 118 AUDIO
    TITLE "7:cjc115_6704"
    INDEX 01 02:13:56
  TRACK 119 AUDIO
    TITLE "0:"
    INDEX 01 02:16:05
  TRACK 120 AUDIO
    TITLE "6:cjc115_6705"
    INDEX 01 02:17:14
  TRACK 121 AUDIO
    TITLE "0:"
    INDEX 01 02:18:39
  TRACK 122 AUDIO
    TITLE "7:cjc115_6706"
    INDEX 01 02:18:47
  TRACK 123 AUDIO
    TITLE "0:"
    INDEX 01 02:20:71
  TRACK 124 AUDIO
    TITLE "6:cjc115_6707"
    INDEX 01 02:22:00
  TRACK 125 AUDIO
    TITLE "0:"
    INDEX 01 02:23:27
  TRACK 126 AUDIO
    TITLE "7:cjc115_6708"
    INDEX 01 02:23:34
  TRACK 127 AUDIO
    TITLE "0:"
    INDEX 01 02:26:25
  TRACK 128 AUDIO
    TITLE "6:cjc115_6709"
    INDEX 01 02:27:32
  TRACK 129 AUDIO
    TITLE "0:"
    INDEX 01 02:28:65
  TRACK 130 AUDIO
    TITLE "7:cjc115_6710"
    INDEX 01 02:28:73
  TRACK 131 AUDIO
    TITLE "0:"
    INDEX 01 02:32:41
  TRACK 132 AUDIO
    TITLE "6:cjc115_6711"
    INDEX 01 02:33:50
  TRACK 133 AUDIO
    TITLE "0:"
    INDEX 01 02:35:02
  TRACK 134 AUDIO
    TITLE "7:cjc115_6712"
    INDEX 01 02:35:12
  TRACK 135 AUDIO
    TITLE "0:"
    INDEX 01 02:37:19
  TRACK 136 AUDIO
    TITLE "6:cjc115_6713"
    INDEX 01 02:38:30
  TRACK 137 AUDIO
    TITLE "0:"
    INDEX 01 02:39:51
  TRACK 138 AUDIO
    TITLE "7:cjc115_6714"
    INDEX 01 02:39:61
  TRACK 139 AUDIO
    TITLE "0:"
    INDEX 01 02:41:30
  TRACK 140 AUDIO
    TITLE "6:cjc115_6715"
    INDEX 01 02:42:38
  TRACK 141 AUDIO
    TITLE "0:"
    INDEX 01 02:43:59
  TRACK 142 AUDIO
    TITLE "7:cjc115_6716"
    INDEX 01 02:43:70
  TRACK 143 AUDIO
    TITLE "0:"
    INDEX 01 02:46:26
  TRACK 144 AUDIO
    TITLE "6:cjc115_6717"
    INDEX 01 02:47:35
  TRACK 145 AUDIO
    TITLE "0:"
    INDEX 01 02:48:58
  TRACK 146 AUDIO
    TITLE "7:cjc115_6718"
    INDEX 01 02:48:68
  TRACK 147 AUDIO
    TITLE "0:"
    INDEX 01 02:51:09
  TRACK 148 AUDIO
    TITLE "6:cjc115_6719"
    INDEX 01 02:52:14
  TRACK 149 AUDIO
    TITLE "0:"
    INDEX 01 02:53:43
  TRACK 150 AUDIO
    TITLE "7:cjc115_6720"
    INDEX 01 02:53:53
  TRACK 151 AUDIO
    TITLE "0:"
    INDEX 01 02:55:03
  TRACK 152 AUDIO
    TITLE "6:cjc115_6721"
    INDEX 01 02:56:10
  TRACK 153 AUDIO
    TITLE "0:"
    INDEX 01 02:57:37
  TRACK 154 AUDIO
    TITLE "7:cjc115_6722"
    INDEX 01 02:57:45
  TRACK 155 AUDIO
    TITLE "0:"
    INDEX 01 03:00:14
  TRACK 156 AUDIO
    TITLE "6:cjc115_6723"
    INDEX 01 03:01:23
  TRACK 157 AUDIO
    TITLE "0:"
    INDEX 01 03:02:60
  TRACK 158 AUDIO
    TITLE "7:cjc115_6724"
    INDEX 01 03:02:72
  TRACK 159 AUDIO
    TITLE "0:"
    INDEX 01 03:05:45
  TRACK 160 AUDIO
    TITLE "6:cjc115_6725"
    INDEX 01 03:06:54
  TRACK 161 AUDIO
    TITLE "0:"
    INDEX 01 03:07:71
  TRACK 162 AUDIO
    TITLE "7:cjc115_6726"
    INDEX 01 03:08:06
  TRACK 163 AUDIO
    TITLE "0:"
    INDEX 01 03:10:50
  TRACK 164 AUDIO
    TITLE "6:cjc115_6727"
    INDEX 01 03:11:61
  TRACK 165 AUDIO
    TITLE "0:"
    INDEX 01 03:13:21
  TRACK 166 AUDIO
    TITLE "7:cjc115_6728"
    INDEX 01 03:13:28
  TRACK 167 AUDIO
    TITLE "0:"
    INDEX 01 03:15:27
  TRACK 168 AUDIO
    TITLE "6:cjc115_6729"
    INDEX 01 03:16:36
  TRACK 169 AUDIO
    TITLE "0:"
    INDEX 01 03:17:67
  TRACK 170 AUDIO
    TITLE "7:cjc115_6730"
    INDEX 01 03:18:00
  TRACK 171 AUDIO
    TITLE "0:"
    INDEX 01 03:20:15
  TRACK 172 AUDIO
    TITLE "6:cjc115_6731"
    INDEX 01 03:21:24
  TRACK 173 AUDIO
    TITLE "0:"
    INDEX 01 03:22:70
  TRACK 174 AUDIO
    TITLE "7:cjc115_6732"
    INDEX 01 03:23:03
  TRACK 175 AUDIO
    TITLE "0:"
    INDEX 01 03:25:39
  TRACK 176 AUDIO
    TITLE "6:cjc115_6733"
    INDEX 01 03:26:49
  TRACK 177 AUDIO
    TITLE "0:"
    INDEX 01 03:28:02
  TRACK 178 AUDIO
    TITLE "7:cjc115_6734"
    INDEX 01 03:28:10
  TRACK 179 AUDIO
    TITLE "0:"
    INDEX 01 03:30:56
  TRACK 180 AUDIO
    TITLE "6:cjc115_6735"
    INDEX 01 03:31:63
  TRACK 181 AUDIO
    TITLE "0:"
    INDEX 01 03:33:27
  TRACK 182 AUDIO
    TITLE "7:cjc115_6736"
    INDEX 01 03:33:37
  TRACK 183 AUDIO
    TITLE "0:"
    INDEX 01 03:35:08
  TRACK 184 AUDIO
    TITLE "6:cjc115_6737"
    INDEX 01 03:36:18
  TRACK 185 AUDIO
    TITLE "0:"
    INDEX 01 03:37:48
  TRACK 186 AUDIO
    TITLE "7:cjc115_6738"
    INDEX 01 03:37:52
  TRACK 187 AUDIO
    TITLE "0:"
    INDEX 01 03:39:10
  TRACK 188 AUDIO
    TITLE "6:cjc115_6739"
    INDEX 01 03:40:19
  TRACK 189 AUDIO
    TITLE "0:"
    INDEX 01 03:41:48
  TRACK 190 AUDIO
    TITLE "7:cjc115_6740"
    INDEX 01 03:41:56
  TRACK 191 AUDIO
    TITLE "0:"
    INDEX 01 03:44:29
